<?xml version="1.0" encoding="utf-8"?>
<!-- Generator: Adobe Illustrator 16.0.0, SVG Export Plug-In . SVG Version: 6.00 Build 0)  -->
<!DOCTYPE svg PUBLIC "-//W3C//DTD SVG 1.1//EN" "http://www.w3.org/Graphics/SVG/1.1/DTD/svg11.dtd">
<svg version="1.1" id="Слой_1" xmlns="http://www.w3.org/2000/svg" xmlns:xlink="http://www.w3.org/1999/xlink" x="0px" y="0px"
	 width="32px" height="27.96px" viewBox="0 2.02 32 27.96" enable-background="new 0 2.02 32 27.96" xml:space="preserve">
<path fill="#0FB28C" d="M11.98,6.99l19,0.02c0.552,0,1-0.448,1-1c0-0.552-0.448-1-1-1l-19-0.02c-0.552,0-1,0.448-1,1
	C10.98,6.542,11.428,6.99,11.98,6.99z"/>
<path fill="#016850" d="M31,15l-19-0.02c-0.552,0-1,0.448-1,1s0.448,1,1,1L31,17c0.552,0,1-0.448,1-1S31.552,15,31,15z"/>
<path fill="#0FB28C" d="M31,25l-19-0.02c-0.552,0-1,0.447-1,1c0,0.552,0.448,1,1,1L31,27c0.552,0,1-0.448,1-1S31.552,25,31,25z"/>
<path fill="#0FB28C" d="M3.99,2.02C1.786,2.02,0,3.806,0,6.01C0,8.214,1.786,10,3.99,10c2.204,0,3.99-1.786,3.99-3.99
	C7.98,3.806,6.194,2.02,3.99,2.02z M3.98,8.01c-1.124,0-2.025-0.876-2.025-2s0.901-2,2.025-2s2,0.876,2,2S5.104,8.01,3.98,8.01z"/>
<path fill="#016850" d="M3.99,12.02C1.786,12.02,0,13.806,0,16.01C0,18.214,1.786,20,3.99,20c2.204,0,3.99-1.786,3.99-3.99
	C7.98,13.806,6.194,12.02,3.99,12.02z M3.98,18.01c-1.124,0-2.025-0.876-2.025-2s0.901-2,2.025-2s2,0.876,2,2
	S5.104,18.01,3.98,18.01z"/>
<path fill="#0FB28C" d="M3.99,22C1.786,22,0,23.786,0,25.99c0,2.203,1.786,3.99,3.99,3.99c2.204,0,3.99-1.787,3.99-3.99
	C7.98,23.786,6.194,22,3.99,22z M3.98,27.99c-1.124,0-2.025-0.876-2.025-2s0.901-2,2.025-2s2,0.876,2,2S5.104,27.99,3.98,27.99z"/>
</svg>
