<?xml version="1.0" encoding="utf-8"?>
<!-- Generator: Adobe Illustrator 16.0.0, SVG Export Plug-In . SVG Version: 6.00 Build 0)  -->
<!DOCTYPE svg PUBLIC "-//W3C//DTD SVG 1.1//EN" "http://www.w3.org/Graphics/SVG/1.1/DTD/svg11.dtd">
<svg version="1.1" id="Layer_1" xmlns="http://www.w3.org/2000/svg" xmlns:xlink="http://www.w3.org/1999/xlink" x="0px" y="0px"
	 width="21.844px" height="21.542px" viewBox="0 0 21.844 21.542" enable-background="new 0 0 21.844 21.542" xml:space="preserve">
<g>
	<rect x="-35.787" y="-0.759" fill="#016951" width="10.012" height="10.012"/>
	<rect x="-47.619" y="-0.759" fill="#016951" width="10.012" height="10.012"/>
	<rect x="-35.787" y="10.771" fill="#016951" width="10.012" height="10.012"/>
	<rect x="-47.619" y="10.771" fill="#016951" width="10.012" height="10.012"/>
</g>
<g>
	<rect x="11.833" fill="#10B38D" width="10.012" height="10.012"/>
	<rect fill="#10B38D" width="10.012" height="10.012"/>
	<rect x="11.833" y="11.53" fill="#10B38D" width="10.012" height="10.012"/>
	<rect y="11.53" fill="#10B38D" width="10.012" height="10.012"/>
</g>
<g>
	<rect x="0.911" y="35.551" fill="#10B38D" width="10.012" height="10.012"/>
	<rect x="12.213" y="38.165" transform="matrix(1 0.0034 -0.0034 1 0.1322 -0.062)" fill="#10B38D" width="12.212" height="1.408"/>
	<rect x="12.213" y="41.54" transform="matrix(1 0.0034 -0.0034 1 0.1437 -0.062)" fill="#10B38D" width="12.212" height="1.408"/>
	<rect x="0.911" y="46.488" fill="#10B38D" width="10.012" height="10.012"/>
	<rect x="12.213" y="49.103" transform="matrix(1 0.0034 -0.0034 1 0.1694 -0.062)" fill="#10B38D" width="12.212" height="1.408"/>
	<rect x="12.213" y="52.478" transform="matrix(1 0.0034 -0.0034 1 0.1809 -0.062)" fill="#10B38D" width="12.212" height="1.408"/>
</g>
<g>
	<rect x="-46.089" y="35.551" fill="#016951" width="10.012" height="10.012"/>
	
		<rect x="-34.787" y="38.165" transform="matrix(1 0.0034 -0.0034 1 0.1319 0.0977)" fill="#016951" width="12.212" height="1.408"/>
	<rect x="-34.787" y="41.54" transform="matrix(1 0.0034 -0.0034 1 0.1434 0.0977)" fill="#016951" width="12.212" height="1.408"/>
	<rect x="-46.089" y="46.488" fill="#016951" width="10.012" height="10.012"/>
	
		<rect x="-34.787" y="49.103" transform="matrix(1 0.0034 -0.0034 1 0.1691 0.0978)" fill="#016951" width="12.212" height="1.408"/>
	
		<rect x="-34.787" y="52.478" transform="matrix(1 0.0034 -0.0034 1 0.1806 0.0978)" fill="#016951" width="12.212" height="1.408"/>
</g>
</svg>
