<?xml version="1.0" encoding="utf-8"?>
<!-- Generator: Adobe Illustrator 16.0.0, SVG Export Plug-In . SVG Version: 6.00 Build 0)  -->
<!DOCTYPE svg PUBLIC "-//W3C//DTD SVG 1.1//EN" "http://www.w3.org/Graphics/SVG/1.1/DTD/svg11.dtd">
<svg version="1.1" id="Layer_1" xmlns="http://www.w3.org/2000/svg" xmlns:xlink="http://www.w3.org/1999/xlink" x="0px" y="0px"
	 width="21.844px" height="21.542px" viewBox="0 0 21.844 21.542" enable-background="new 0 0 21.844 21.542" xml:space="preserve">
<g>
	<rect x="11.833" fill="#016951" width="10.012" height="10.012"/>
	<rect fill="#016951" width="10.012" height="10.012"/>
	<rect x="11.833" y="11.53" fill="#016951" width="10.012" height="10.012"/>
	<rect y="11.53" fill="#016951" width="10.012" height="10.012"/>
</g>
<g>
	<rect x="59.452" y="0.759" fill="#10B38D" width="10.012" height="10.012"/>
	<rect x="47.619" y="0.759" fill="#10B38D" width="10.012" height="10.012"/>
	<rect x="59.452" y="12.289" fill="#10B38D" width="10.012" height="10.012"/>
	<rect x="47.619" y="12.289" fill="#10B38D" width="10.012" height="10.012"/>
</g>
<g>
	<rect x="48.53" y="36.31" fill="#10B38D" width="10.012" height="10.012"/>
	
		<rect x="59.832" y="38.924" transform="matrix(1 0.0034 -0.0034 1 0.1351 -0.2239)" fill="#10B38D" width="12.212" height="1.408"/>
	
		<rect x="59.832" y="42.299" transform="matrix(1 0.0034 -0.0034 1 0.1465 -0.2239)" fill="#10B38D" width="12.212" height="1.408"/>
	<rect x="48.53" y="47.247" fill="#10B38D" width="10.012" height="10.012"/>
	
		<rect x="59.832" y="49.862" transform="matrix(1 0.0034 -0.0034 1 0.1722 -0.2238)" fill="#10B38D" width="12.212" height="1.408"/>
	
		<rect x="59.832" y="53.237" transform="matrix(1 0.0034 -0.0034 1 0.1837 -0.2238)" fill="#10B38D" width="12.212" height="1.408"/>
</g>
<g>
	<rect x="1.53" y="36.31" fill="#016951" width="10.012" height="10.012"/>
	
		<rect x="12.832" y="38.924" transform="matrix(1 0.0034 -0.0034 1 0.1348 -0.0641)" fill="#016951" width="12.212" height="1.408"/>
	
		<rect x="12.832" y="42.299" transform="matrix(1 0.0034 -0.0034 1 0.1463 -0.0641)" fill="#016951" width="12.212" height="1.408"/>
	<rect x="1.53" y="47.247" fill="#016951" width="10.012" height="10.012"/>
	<rect x="12.832" y="49.862" transform="matrix(1 0.0034 -0.0034 1 0.172 -0.0641)" fill="#016951" width="12.212" height="1.408"/>
	<rect x="12.832" y="53.237" transform="matrix(1 0.0034 -0.0034 1 0.1834 -0.064)" fill="#016951" width="12.212" height="1.408"/>
</g>
</svg>
