<?xml version="1.0" encoding="utf-8"?>
<!-- Generator: Adobe Illustrator 16.0.0, SVG Export Plug-In . SVG Version: 6.00 Build 0)  -->
<!DOCTYPE svg PUBLIC "-//W3C//DTD SVG 1.1//EN" "http://www.w3.org/Graphics/SVG/1.1/DTD/svg11.dtd">
<svg version="1.1" id="Layer_1" xmlns="http://www.w3.org/2000/svg" xmlns:xlink="http://www.w3.org/1999/xlink" x="0px" y="0px"
	 width="20.996px" height="21.325px" viewBox="0 0 20.996 21.325" enable-background="new 0 0 20.996 21.325" xml:space="preserve">
<g>
	<rect x="1.821" y="-35.457" fill="#016951" width="10.012" height="10.012"/>
	<rect x="-10.012" y="-35.457" fill="#016951" width="10.012" height="10.012"/>
	<rect x="1.821" y="-23.927" fill="#016951" width="10.012" height="10.012"/>
	<rect x="-10.012" y="-23.927" fill="#016951" width="10.012" height="10.012"/>
</g>
<g>
	<rect x="49.44" y="-34.698" fill="#10B38D" width="10.012" height="10.012"/>
	<rect x="37.607" y="-34.698" fill="#10B38D" width="10.012" height="10.012"/>
	<rect x="49.44" y="-23.168" fill="#10B38D" width="10.012" height="10.012"/>
	<rect x="37.607" y="-23.168" fill="#10B38D" width="10.012" height="10.012"/>
</g>
<rect x="38.518" y="-0.65" fill="#10B38D" width="10.012" height="10.012"/>
<g>
	<rect x="49.502" y="2.356" fill="#10B38D" width="10.012" height="1.292"/>
	<rect x="49.502" y="5.065" fill="#10B38D" width="10.012" height="1.292"/>
</g>
<rect x="38.518" y="10.663" fill="#10B38D" width="10.012" height="10.012"/>
<g>
	<rect x="49.502" y="13.668" fill="#10B38D" width="10.012" height="1.292"/>
	<rect x="49.502" y="16.377" fill="#10B38D" width="10.012" height="1.292"/>
</g>
<rect fill="#016951" width="10.012" height="10.012"/>
<g>
	<rect x="10.984" y="3.006" fill="#016951" width="10.012" height="1.292"/>
	<rect x="10.984" y="5.715" fill="#016951" width="10.012" height="1.292"/>
</g>
<rect y="11.313" fill="#016951" width="10.012" height="10.012"/>
<g>
	<rect x="10.984" y="14.318" fill="#016951" width="10.012" height="1.292"/>
	<rect x="10.984" y="17.027" fill="#016951" width="10.012" height="1.292"/>
</g>
</svg>
