<?xml version="1.0" encoding="utf-8"?>
<!-- Generator: Adobe Illustrator 16.0.0, SVG Export Plug-In . SVG Version: 6.00 Build 0)  -->
<!DOCTYPE svg PUBLIC "-//W3C//DTD SVG 1.1//EN" "http://www.w3.org/Graphics/SVG/1.1/DTD/svg11.dtd">
<svg version="1.1" id="Layer_1" xmlns="http://www.w3.org/2000/svg" xmlns:xlink="http://www.w3.org/1999/xlink" x="0px" y="0px"
	 width="23.392px" height="21.266px" viewBox="0 0 23.392 21.266" enable-background="new 0 0 23.392 21.266" xml:space="preserve">
<g>
	<rect x="-36.697" y="-34.807" fill="#016951" width="10.012" height="10.012"/>
	<rect x="-48.53" y="-34.807" fill="#016951" width="10.012" height="10.012"/>
	<rect x="-36.697" y="-23.277" fill="#016951" width="10.012" height="10.012"/>
	<rect x="-48.53" y="-23.277" fill="#016951" width="10.012" height="10.012"/>
</g>
<g>
	<rect x="10.922" y="-34.048" fill="#10B38D" width="10.012" height="10.012"/>
	<rect x="-0.911" y="-34.048" fill="#10B38D" width="10.012" height="10.012"/>
	<rect x="10.922" y="-22.518" fill="#10B38D" width="10.012" height="10.012"/>
	<rect x="-0.911" y="-22.518" fill="#10B38D" width="10.012" height="10.012"/>
</g>
<rect fill="#10B38D" width="10.012" height="10.012"/>
<g>
	<rect x="10.984" y="3.006" fill="#10B38D" width="12.408" height="1.292"/>
	<rect x="10.984" y="5.715" fill="#10B38D" width="12.408" height="1.292"/>
</g>
<rect y="11.254" fill="#10B38D" width="10.012" height="10.012"/>
<g>
	<rect x="10.984" y="14.26" fill="#10B38D" width="12.408" height="1.292"/>
	<rect x="10.984" y="16.969" fill="#10B38D" width="12.408" height="1.292"/>
</g>
<rect x="-38.381" y="0.679" fill="#016951" width="10.012" height="10.012"/>
<g>
	<rect x="-27.397" y="3.685" fill="#016951" width="12.408" height="1.292"/>
	<rect x="-27.397" y="6.394" fill="#016951" width="12.408" height="1.292"/>
</g>
<rect x="-38.381" y="11.933" fill="#016951" width="10.012" height="10.012"/>
<g>
	<rect x="-27.397" y="14.939" fill="#016951" width="12.408" height="1.292"/>
	<rect x="-27.397" y="17.648" fill="#016951" width="12.408" height="1.292"/>
</g>
</svg>
