<?xml version="1.0" encoding="utf-8"?>
<!-- Generator: Adobe Illustrator 16.0.0, SVG Export Plug-In . SVG Version: 6.00 Build 0)  -->
<!DOCTYPE svg PUBLIC "-//W3C//DTD SVG 1.1//EN" "http://www.w3.org/Graphics/SVG/1.1/DTD/svg11.dtd">
<svg version="1.1" id="Capa_1" xmlns="http://www.w3.org/2000/svg" xmlns:xlink="http://www.w3.org/1999/xlink" x="0px" y="0px"
	 width="66.333px" height="67.333px" viewBox="6.833 5.833 66.333 67.333" enable-background="new 6.833 5.833 66.333 67.333"
	 xml:space="preserve">
<g display="none">
	<path display="inline" fill="#11B386" d="M35.179,44.853c6.215,6.255,13.412,12.232,16.256,9.37
		c4.073-4.098,6.585-7.668,15.563-0.407c8.98,7.266,2.083,12.105-1.861,16.076c-4.554,4.581-21.527,0.241-38.304-16.638
		C10.058,36.369,5.741,19.29,10.297,14.707c3.946-3.971,8.755-10.909,15.972-1.873c7.218,9.033,3.671,11.561-0.402,15.66
		C23.023,31.356,28.962,38.598,35.179,44.853z"/>
</g>
<title></title>
<desc></desc>
<g id="slice" transform="translate(215.000000, 119.000000)">
</g>
<g>
	<path id="map-location-pin-map-marker-glyph" fill="#11B386" d="M39.609,67.21c0,0,19.074-25.105,19.074-36.079
		c0-10.973-6.312-19.868-19.074-19.868c-12.763,0-19.073,8.896-19.073,19.868C20.536,42.104,39.609,67.21,39.609,67.21L39.609,67.21
		z"/>
	<circle fill="#FFFFFF" cx="39.608" cy="29.78" r="11.165"/>
</g>
</svg>
