<?xml version="1.0" encoding="utf-8"?>
<!-- Generator: Adobe Illustrator 16.0.0, SVG Export Plug-In . SVG Version: 6.00 Build 0)  -->
<!DOCTYPE svg PUBLIC "-//W3C//DTD SVG 1.1//EN" "http://www.w3.org/Graphics/SVG/1.1/DTD/svg11.dtd">
<svg version="1.1" id="Layer_1" xmlns="http://www.w3.org/2000/svg" xmlns:xlink="http://www.w3.org/1999/xlink" x="0px" y="0px"
	 width="50.25px" height="51.125px" viewBox="3.721 2.721 50.25 51.125" enable-background="new 3.721 2.721 50.25 51.125"
	 xml:space="preserve">
<g>
	<path fill="#80AE37" d="M46.381,10.714c-4.651-4.656-10.837-7.222-17.427-7.225c-13.579,0-24.63,11.051-24.636,24.634
		c-0.002,4.342,1.133,8.579,3.289,12.315L4.112,53.204l13.06-3.426c3.598,1.963,7.649,2.997,11.772,2.999h0.01c0.001,0-0.001,0,0,0
		c13.577,0,24.63-11.052,24.635-24.635C53.592,21.559,51.031,15.37,46.381,10.714z M28.954,48.616h-0.009
		c-3.674-0.001-7.277-0.988-10.421-2.854l-0.748-0.444l-7.75,2.033l2.069-7.556l-0.487-0.775c-2.05-3.26-3.132-7.027-3.13-10.896
		C8.482,16.835,17.668,7.65,28.962,7.65c5.47,0.001,10.61,2.134,14.477,6.004c3.865,3.871,5.993,9.016,5.991,14.486
		C49.425,39.43,40.239,48.616,28.954,48.616z"/>
	<path fill="#80AE37" d="M40.185,33.281c-0.615-0.309-3.643-1.797-4.206-2.003c-0.564-0.205-0.975-0.308-1.385,0.309
		c-0.411,0.616-1.591,2.003-1.949,2.413c-0.359,0.411-0.719,0.463-1.334,0.154s-2.599-0.958-4.95-3.056
		c-1.83-1.632-3.065-3.647-3.424-4.264c-0.359-0.616-0.038-0.949,0.27-1.257c0.277-0.275,0.615-0.719,0.924-1.078
		c0.308-0.359,0.41-0.616,0.615-1.026c0.205-0.411,0.103-0.771-0.052-1.079c-0.153-0.308-1.385-3.338-1.897-4.57
		c-0.5-1.2-1.007-1.037-1.385-1.057c-0.358-0.018-0.77-0.021-1.18-0.021s-1.077,0.154-1.642,0.771s-2.154,2.105-2.154,5.135
		c0,3.03,2.205,5.957,2.514,6.368c0.308,0.41,4.34,6.628,10.515,9.294c1.469,0.635,2.615,1.013,3.51,1.297
		c1.475,0.469,2.816,0.402,3.877,0.244c1.183-0.177,3.642-1.489,4.154-2.927c0.513-1.438,0.513-2.671,0.359-2.928
		C41.211,33.743,40.801,33.59,40.185,33.281z"/>
</g>
</svg>
